<?xml version="1.0" standalone="no"?>
<!DOCTYPE svg PUBLIC "-//W3C//DTD SVG 20010904//EN"
 "http://www.w3.org/TR/2001/REC-SVG-20010904/DTD/svg10.dtd">
<svg version="1.0" xmlns="http://www.w3.org/2000/svg"
 width="312.000000pt" height="341.000000pt" viewBox="0 0 312.000000 341.000000"
 preserveAspectRatio="xMidYMid meet">

<g transform="translate(0.000000,341.000000) scale(0.100000,-0.100000)"
fill="#000000" stroke="none">
<path d="M0 1705 l0 -1705 1560 0 1560 0 0 1705 0 1705 -1560 0 -1560 0 0
-1705z m3045 5 l0 -1625 -1482 -3 -1483 -2 0 1630 0 1630 1483 -2 1482 -3 0
-1625z"/>
<path d="M1265 2935 c-34 -33 -34 -87 0 -121 28 -28 31 -51 13 -101 -10 -27
-10 -38 0 -53 7 -11 12 -51 12 -90 l0 -70 -55 0 c-34 0 -65 6 -80 16 -22 14
-27 14 -56 0 -18 -9 -40 -16 -51 -16 -25 0 -24 42 3 66 33 30 41 60 25 99 -25
60 -84 72 -135 29 -40 -33 -42 -80 -6 -122 20 -23 25 -41 25 -81 l0 -51 54 0
c33 0 66 -7 84 -17 28 -16 31 -16 55 0 23 15 77 24 77 13 0 -2 -9 -25 -19 -49
-11 -25 -23 -66 -27 -92 -7 -52 -1 -50 -100 -30 -26 6 -35 3 -48 -16 -21 -30
-20 -52 2 -72 20 -19 67 -23 77 -7 3 6 19 10 35 10 26 0 31 -5 40 -42 7 -24
24 -67 40 -95 30 -56 25 -65 -25 -39 -25 13 -32 13 -56 0 -41 -21 -57 -18 -97
17 -28 25 -41 30 -66 25 -73 -14 -99 -95 -47 -147 40 -40 83 -39 121 1 31 33
55 37 84 15 25 -19 50 -19 66 0 8 9 29 15 59 15 43 -1 45 -2 26 -15 -11 -9
-39 -34 -63 -57 -46 -45 -53 -81 -19 -102 15 -9 24 -4 56 30 21 23 56 54 78
68 l39 26 52 -22 c58 -24 84 -19 90 19 4 24 -9 34 -70 57 -86 32 -164 121
-193 224 -6 20 -3 22 39 22 35 0 48 5 56 19 15 29 -12 51 -62 51 l-41 0 7 43
c20 123 126 231 258 261 27 6 27 6 30 -56 3 -60 4 -63 28 -63 23 0 25 4 30 60
5 60 5 60 35 57 44 -5 125 -48 167 -89 39 -38 81 -123 92 -185 l7 -38 -39 0
c-85 0 -97 -62 -13 -68 47 -4 48 -10 22 -69 -25 -54 -91 -125 -147 -158 -46
-27 -56 -53 -28 -76 12 -10 22 -10 45 -2 25 10 33 8 68 -18 22 -15 50 -42 62
-59 27 -35 54 -46 74 -30 25 21 17 46 -35 101 -27 29 -50 55 -50 56 0 2 44 3
98 3 63 0 102 -4 110 -12 17 -17 15 -67 -3 -75 -19 -7 -45 -55 -45 -83 0 -12
13 -35 29 -51 40 -40 82 -39 123 1 26 27 30 36 25 68 -4 23 -16 45 -32 57 -29
24 -32 52 -8 93 16 28 16 31 0 56 -18 27 -69 37 -82 16 -3 -5 -46 -10 -96 -10
l-89 0 29 53 c16 28 35 71 42 95 11 36 16 42 40 42 17 0 38 -10 53 -25 67 -67
178 3 142 90 -25 59 -95 75 -137 30 -34 -35 -77 -34 -84 3 -9 42 -31 125 -40
145 -6 15 0 17 57 17 42 0 71 -5 86 -16 28 -19 67 -12 82 16 14 27 4 57 -26
76 -22 15 -26 15 -49 0 -32 -21 -197 -23 -214 -2 -8 9 -11 50 -9 117 l3 104
63 3 c58 3 66 1 98 -28 42 -37 73 -38 113 -4 24 20 31 34 31 63 0 87 -108 121
-158 50 -18 -25 -117 -27 -160 -2 -28 16 -31 16 -56 0 -27 -18 -37 -69 -16
-82 6 -3 10 -39 10 -79 l0 -73 -48 24 c-26 13 -68 27 -92 31 -55 9 -64 37 -26
76 57 56 19 150 -61 150 -78 0 -112 -99 -52 -153 43 -40 36 -62 -26 -76 -27
-6 -69 -21 -92 -33 l-43 -22 0 35 c0 19 5 44 12 55 10 15 10 26 0 53 -18 50
-15 73 13 101 54 54 17 146 -60 146 -25 0 -44 -8 -60 -25z m81 -74 c-10 -16
-36 -13 -43 5 -8 22 18 37 36 20 7 -8 10 -19 7 -25z m249 -81 c4 -6 1 -18 -6
-26 -11 -13 -14 -13 -27 0 -8 8 -11 19 -8 25 9 14 33 14 41 1z m523 -17 c5
-17 -26 -29 -40 -15 -6 6 -7 15 -3 22 9 14 37 9 43 -7z m-1100 -130 c5 -17
-26 -29 -40 -15 -6 6 -7 15 -3 22 9 14 37 9 43 -7z m1132 -429 c0 -20 -30 -30
-40 -13 -11 17 7 40 26 32 8 -3 14 -12 14 -19z m-1132 -247 c2 -11 -3 -17 -17
-17 -23 0 -35 15 -26 31 10 15 39 6 43 -14z m1122 -197 c0 -13 -7 -20 -20 -20
-19 0 -27 20 -13 33 13 14 33 6 33 -13z"/>
<path d="M1446 2378 c-13 -19 -14 -25 -2 -43 7 -11 22 -21 34 -23 24 -4 53 33
44 57 -13 37 -53 42 -76 9z"/>
<path d="M1650 2385 c-7 -8 -10 -25 -6 -39 11 -45 71 -45 82 0 8 30 -11 54
-41 54 -12 0 -28 -7 -35 -15z"/>
<path d="M1455 2219 c-26 -41 42 -89 126 -89 87 0 160 48 128 86 -15 18 -34
18 -86 -2 -40 -16 -46 -16 -86 0 -50 19 -73 20 -82 5z"/>
<path d="M323 1390 c-55 -33 -63 -61 -63 -230 0 -169 9 -203 59 -233 35 -21
173 -23 210 -4 33 17 59 55 67 100 6 36 6 37 -25 37 -27 0 -31 -4 -41 -39 -13
-48 -48 -66 -122 -59 -83 8 -88 21 -88 199 0 184 3 189 108 189 74 0 102 -16
102 -57 0 -24 17 -38 45 -38 28 0 30 26 6 80 -25 57 -63 75 -158 75 -50 0 -77
-5 -100 -20z"/>
<path d="M687 1403 c-4 -3 -7 -116 -7 -250 l0 -244 33 3 32 3 1 105 2 105 93
0 94 0 3 -107 3 -108 29 0 30 0 0 251 0 250 -27 -3 -28 -3 -3 -112 -3 -113
-94 0 -95 0 0 99 c0 55 -3 106 -6 115 -6 16 -45 22 -57 9z"/>
<path d="M1095 1398 c-3 -7 -4 -119 -3 -248 l3 -235 30 0 30 0 3 83 3 82 67 0
68 0 35 -82 c33 -78 36 -83 68 -86 39 -4 38 -3 -14 111 l-32 72 23 18 c67 51
54 235 -20 274 -42 23 -253 32 -261 11z m233 -64 c19 -13 22 -24 22 -86 0 -98
-10 -108 -112 -108 l-78 0 0 105 0 105 73 0 c49 0 80 -5 95 -16z"/>
<path d="M1510 1161 l0 -251 30 0 30 0 -2 248 -3 247 -27 3 -28 3 0 -250z"/>
<path d="M1713 1394 c-56 -28 -80 -113 -48 -174 19 -36 51 -54 139 -76 89 -22
116 -44 116 -94 0 -59 -26 -83 -96 -88 -49 -3 -63 0 -86 18 -17 13 -28 31 -28
46 0 20 -5 24 -30 24 -25 0 -30 -4 -30 -25 0 -39 27 -83 60 -100 18 -9 57 -15
105 -15 119 0 165 37 165 134 0 87 -34 122 -150 150 -36 9 -75 21 -87 26 -30
13 -41 71 -19 105 15 22 23 25 79 25 74 0 80 -4 100 -52 17 -40 52 -53 64 -23
10 27 -21 89 -56 112 -42 28 -147 32 -198 7z"/>
<path d="M2047 1404 c-4 -4 -7 -18 -7 -31 0 -22 4 -23 60 -23 l60 0 2 -217 3
-218 28 0 28 0 2 215 2 215 60 5 c56 5 60 7 60 30 l0 25 -146 3 c-80 1 -148
-1 -152 -4z"/>
<path d="M2427 1403 c-4 -3 -7 -116 -7 -250 l0 -243 30 0 30 0 0 250 0 250
-23 0 c-13 0 -27 -3 -30 -7z"/>
<path d="M2580 1160 l0 -251 143 3 142 3 0 25 0 25 -112 3 -113 3 0 79 0 80
85 0 c84 0 85 0 85 25 0 25 -1 25 -85 25 l-85 0 0 85 0 85 110 0 110 0 0 30 0
30 -140 0 -140 0 0 -250z"/>
<path d="M260 545 l0 -225 25 0 c25 0 25 0 25 95 l0 95 90 0 90 0 0 -95 0 -95
30 0 30 0 0 225 0 225 -30 0 -30 0 0 -100 0 -100 -90 0 -90 0 0 100 0 100 -25
0 -25 0 0 -225z"/>
<path d="M747 763 c-3 -4 -33 -100 -67 -213 -35 -113 -65 -211 -67 -217 -4 -9
5 -13 25 -13 26 0 31 5 42 45 l13 45 87 0 88 0 11 -45 c10 -41 14 -45 41 -45
l29 0 -14 48 c-8 26 -39 126 -68 222 l-53 175 -31 3 c-17 2 -33 -1 -36 -5z
m66 -174 c16 -55 31 -107 34 -115 4 -11 -9 -14 -67 -14 -53 0 -71 3 -68 13 3
6 18 58 34 114 16 57 31 103 34 103 3 0 18 -45 33 -101z"/>
<path d="M1010 545 l0 -225 30 0 30 0 0 75 0 75 63 0 63 0 31 -72 c28 -66 34
-73 62 -76 17 -2 31 -1 31 1 0 2 -16 39 -36 81 l-35 77 24 29 c56 65 41 212
-24 245 -19 10 -61 15 -134 15 l-105 0 0 -225z m220 155 c27 -27 28 -118 1
-151 -16 -19 -30 -24 -90 -27 l-71 -4 0 101 0 101 70 0 c57 0 74 -4 90 -20z"/>
<path d="M1370 761 c0 -5 23 -104 50 -221 28 -117 50 -214 50 -216 0 -2 13 -4
28 -4 28 0 29 2 82 173 29 94 55 174 56 176 4 5 1 15 64 -186 49 -158 52 -163
78 -163 27 0 27 1 75 203 26 111 50 212 53 225 6 19 3 22 -24 22 -33 0 -32 2
-88 -258 -10 -45 -21 -79 -24 -75 -4 5 -29 81 -55 171 -48 159 -49 162 -77
162 -29 0 -25 11 -109 -269 -26 -89 -24 -92 -70 117 l-33 152 -28 0 c-15 0
-28 -4 -28 -9z"/>
<path d="M1976 762 c-3 -5 -4 -105 -3 -223 l2 -214 133 -3 132 -3 0 26 0 25
-105 0 -105 0 0 70 0 69 78 3 c75 3 77 4 77 28 0 24 -2 25 -77 28 l-78 3 0 74
0 74 103 3 c97 3 102 4 105 26 3 22 2 22 -127 22 -71 0 -132 -4 -135 -8z"/>
<path d="M2310 546 l0 -226 120 0 120 0 0 25 c0 25 -1 25 -90 25 l-90 0 -2
198 -3 197 -27 3 -28 3 0 -225z"/>
<path d="M2620 545 l0 -225 126 0 c124 0 125 0 122 23 -3 21 -8 22 -95 25
l-93 3 0 199 0 200 -30 0 -30 0 0 -225z"/>
</g>
</svg>
